<svg width="800" height="800" viewBox="0 0 800 800" fill="none" xmlns="http://www.w3.org/2000/svg">
  <defs>
    <linearGradient id="v_gradient_full" x1="300" y1="120" x2="400" y2="400" gradientUnits="userSpaceOnUse">
      <stop stop-color="#22C55E"/>
      <stop offset="1" stop-color="#15803D"/>
    </linearGradient>
  </defs>
  
  <!-- Centered Icon -->
  <g transform="translate(144, 40)">
    <path d="M158 135H248L328 385H238L158 135Z" fill="white"/>
    <path d="M260 270L380 120H450L328 385H260V270Z" fill="url(#v_gradient_full)"/>
    <path d="M380 120L440 100L460 180L425 145L380 120Z" fill="#22C55E"/>
    <path d="M328 385L430 230L360 385H328Z" fill="#15803D" opacity="0.8"/>
  </g>

  <!-- Wordmark + Tagline -->
  <g transform="translate(45, 480)">
    <g fill="white">
      <path d="M0 0L45 120L90 0H72L45 95L18 0H0Z"/>
      <path d="M120 0H195V18H120V0ZM120 51H185V69H120V51ZM120 102H195V120H120V102Z"/>
      <path d="M225 0L272 58L225 120H245L282 72L319 120H339L292 58L339 0H319L282 44L245 0H225Z"/>
      <path d="M350 0H430V18H400V120H380V18H350V0Z"/>
      <path d="M450 0H515C535 0 550 15 550 35C550 52 540 65 525 70L555 120H533L505 72H470V120H450V0ZM470 18V54H515C525 54 532 48 532 35C532 22 525 18 515 18H470Z"/>
      <path d="M570 120L615 0L660 120H640L615 30L590 120H570Z"/>
    </g>
    <g transform="translate(0, 180)">
      <rect x="-20" y="-12" width="40" height="2" fill="#22C55E"/>
      <text x="40" y="0" fill="white" font-family="Arial, Helvetica, sans-serif" font-weight="bold" font-size="24" letter-spacing="0.15em">
        TU MARCA, EN LA <tspan fill="#22C55E">DIRECCIÓN CORRECTA</tspan>
      </text>
      <rect x="670" y="-12" width="40" height="2" fill="#22C55E"/>
    </g>
  </g>
</svg>
